<?xml version="1.0" standalone="no"?>
<!DOCTYPE svg PUBLIC "-//W3C//DTD SVG 20010904//EN"
 "http://www.w3.org/TR/2001/REC-SVG-20010904/DTD/svg10.dtd">
<svg version="1.0" xmlns="http://www.w3.org/2000/svg"
 width="140.000000pt" height="140.000000pt" viewBox="0 0 140.000000 140.000000"
 preserveAspectRatio="xMidYMid meet">
<metadata>
Created by potrace 1.16, written by Peter Selinger 2001-2019
</metadata>
<g transform="translate(0.000000,140.000000) scale(0.100000,-0.100000)"
fill="#000000" stroke="none">
<path d="M0 700 l0 -700 700 0 700 0 0 700 0 700 -700 0 -700 0 0 -700z m631
304 c7 -9 14 -33 15 -53 1 -20 3 -45 5 -56 2 -11 -2 -20 -8 -21 -27 -3 -27 -6
-3 -14 l25 -8 -22 -7 c-26 -8 -25 -7 -17 -29 3 -9 16 -16 28 -17 21 0 21 0 -2
-11 -16 -8 -33 -8 -62 1 -46 14 -76 42 -83 79 -8 42 1 52 46 50 37 -3 42 0 43
20 1 19 -4 22 -37 22 -45 0 -47 5 -17 37 25 27 70 30 89 7z m213 -45 c-3 -5
-12 -6 -22 -3 -9 2 -7 -1 6 -7 12 -7 22 -18 22 -26 0 -7 4 -13 8 -13 5 0 37
-18 72 -41 58 -37 62 -42 47 -56 -14 -15 -21 -15 -58 -3 -24 8 -75 14 -115 14
l-72 0 37 28 c20 15 41 28 48 28 20 0 4 28 -20 34 -12 3 -26 1 -31 -4 -6 -6
-16 -10 -23 -10 -8 0 -5 12 10 35 19 30 27 34 59 33 20 -1 35 -5 32 -9z"/>
</g>
</svg>
